<?xml version="1.0" standalone="no"?>
<!DOCTYPE svg PUBLIC "-//W3C//DTD SVG 20010904//EN"
 "http://www.w3.org/TR/2001/REC-SVG-20010904/DTD/svg10.dtd">
<svg version="1.0" xmlns="http://www.w3.org/2000/svg"
 width="1024.000000pt" height="1024.000000pt" viewBox="0 0 1024.000000 1024.000000"
 preserveAspectRatio="xMidYMid meet">
<metadata>
Created by potrace 1.16, written by Peter Selinger 2001-2019
</metadata>
<g transform="translate(0.000000,1024.000000) scale(0.100000,-0.100000)"
fill="#000000" stroke="none">
<path d="M0 5120 l0 -5120 5120 0 5120 0 0 5120 0 5120 -5120 0 -5120 0 0
-5120z m5237 3142 c10 -6 12 -130 11 -535 l-1 -527 -51 2 -51 2 48 3 c33 3 47
8 47 19 0 7 -7 14 -15 14 -8 0 -15 5 -15 11 0 6 -17 9 -42 7 -36 -2 -44 -7
-46 -25 -2 -13 -8 -23 -13 -23 -5 0 -9 208 -9 524 0 491 1 525 18 529 29 8
106 7 119 -1z m-292 -582 l0 -575 -31 -60 c-86 -165 -81 -159 -96 -133 -10 18
-14 141 -16 568 -2 300 0 595 3 657 8 126 5 122 90 120 l50 -2 0 -575z m555
567 c22 -2 26 -8 32 -52 3 -27 7 -274 7 -548 1 -462 -9 -720 -28 -756 -6 -9
-16 2 -36 35 -16 27 -39 64 -53 82 l-25 33 -3 604 c-3 563 -2 604 14 609 9 2
28 2 42 0 14 -3 36 -6 50 -7z m-2706 -11 c76 -32 108 -148 60 -213 -64 -86
-162 -96 -236 -26 -120 115 20 304 176 239z m4860 0 c39 -16 93 -79 101 -118
10 -41 -29 -113 -76 -145 -99 -65 -234 9 -234 128 0 59 25 96 85 127 51 26 78
27 124 8z m-3004 -95 l0 -90 -57 -12 c-32 -6 -129 -31 -216 -55 -87 -24 -162
-44 -165 -44 -17 1 49 31 102 47 33 9 55 18 49 20 -16 6 -122 -32 -278 -99
-144 -61 -210 -96 -201 -106 3 -2 11 0 18 5 15 11 48 24 48 19 0 -2 -24 -16
-52 -31 -180 -94 -408 -256 -593 -421 -60 -54 -114 -99 -120 -99 -15 0 -155
-151 -205 -220 l-43 -60 62 65 62 65 -66 -88 c-37 -48 -70 -85 -75 -82 -5 3
-18 -8 -29 -24 -24 -33 -27 -45 -8 -35 7 4 9 3 4 -2 -5 -5 -13 -9 -19 -9 -15
0 -161 -243 -238 -395 -82 -163 -132 -296 -165 -435 -28 -117 -29 -127 -15
-105 11 16 12 21 -14 -100 -32 -147 -41 -277 -41 -590 0 -357 8 -428 75 -674
91 -332 269 -687 487 -976 149 -196 400 -432 622 -584 342 -234 646 -369 991
-441 47 -10 87 -19 88 -21 2 -1 1 -12 -3 -23 -8 -26 -38 -27 -127 -6 -214 49
-471 151 -700 276 -385 210 -741 524 -978 862 -18 26 -35 47 -37 47 -6 0 26
-58 36 -64 4 -3 14 -26 21 -50 8 -28 20 -48 31 -51 28 -9 24 -35 -6 -35 -14 0
-25 -3 -25 -7 0 -15 19 -38 30 -38 7 0 18 -15 26 -33 20 -49 3 -36 -58 44
-200 259 -369 540 -464 773 -24 58 -44 99 -44 91 -1 -30 -18 14 -54 140 -80
279 -106 478 -106 800 -1 228 18 405 65 630 102 484 373 997 743 1407 156 172
430 403 580 490 26 14 66 39 89 55 67 45 287 151 418 201 116 45 305 100 470
137 44 10 81 19 83 19 1 1 2 -39 2 -88z m1290 19 c408 -115 748 -291 1045
-543 120 -101 345 -328 425 -428 325 -406 510 -783 624 -1269 83 -355 94 -742
31 -1115 -13 -82 -25 -154 -25 -158 0 -5 -4 -6 -8 -3 -5 3 -17 -32 -26 -77
-31 -146 -128 -412 -200 -547 -45 -83 -82 -150 -104 -183 -24 -36 -42 -48 -42
-26 0 6 -13 0 -29 -13 -16 -13 -26 -29 -23 -38 3 -8 2 -12 -3 -8 -4 4 -26 -7
-48 -25 -23 -17 -45 -32 -49 -32 -4 0 -59 -64 -123 -142 -214 -264 -497 -519
-737 -665 -108 -65 -375 -195 -508 -247 -113 -44 -277 -92 -376 -111 l-61 -12
-2 -61 c-2 -80 -11 -88 -11 -10 0 33 -3 74 -6 92 -7 35 -14 31 101 56 189 41
539 179 739 292 213 121 444 301 626 489 259 267 422 513 568 854 92 215 158
464 194 733 23 174 12 554 -23 772 -39 246 -129 529 -233 738 -41 81 -70 150
-65 153 12 7 11 24 -2 24 -5 0 -7 -4 -4 -10 3 -5 2 -10 -2 -10 -5 0 -21 26
-36 58 -15 31 -21 48 -12 38 29 -37 24 -9 -8 42 -30 49 -60 75 -37 32 6 -11 8
-20 6 -20 -3 0 -33 42 -66 93 -34 50 -47 75 -30 55 18 -21 36 -38 41 -38 18 0
-21 57 -96 140 -81 91 -122 122 -63 49 35 -44 61 -84 41 -64 -5 6 -38 44 -73
85 -109 130 -185 206 -405 405 l-30 27 39 -27 c73 -53 31 -6 -71 79 -110 90
-305 208 -437 262 -44 19 -72 27 -62 19 11 -8 24 -15 30 -15 5 0 7 -2 4 -5 -8
-8 -108 37 -108 47 0 5 9 4 20 -2 11 -6 20 -8 20 -5 0 16 -298 127 -391 145
-30 6 -82 20 -116 32 l-63 20 0 65 0 66 58 -6 c31 -4 122 -25 202 -47z m-1290
-308 l0 -78 -92 -24 c-164 -41 -266 -78 -421 -153 -147 -71 -329 -177 -343
-198 -4 -7 1 -7 15 0 31 17 26 8 -11 -19 -19 -14 -27 -16 -19 -7 24 30 1 18
-77 -40 -177 -132 -322 -258 -365 -318 -11 -16 17 8 63 55 47 47 101 93 120
103 l35 19 -40 -38 c-22 -20 -67 -62 -101 -94 -33 -31 -80 -84 -103 -119 -42
-62 -69 -80 -36 -24 15 25 13 24 -15 -7 -70 -76 -195 -253 -259 -365 l-23 -40
26 30 c18 20 -4 -33 -63 -155 -49 -102 -97 -210 -107 -240 -9 -30 -19 -50 -21
-43 -2 6 11 51 30 100 50 130 51 136 9 48 -56 -116 -149 -452 -130 -470 2 -3
10 26 17 63 15 78 52 214 58 208 2 -2 -5 -37 -16 -77 -29 -108 -58 -269 -71
-392 -12 -116 -16 -474 -6 -547 3 -25 8 -67 11 -94 25 -244 85 -444 211 -701
114 -232 195 -359 326 -512 172 -201 330 -341 545 -485 253 -169 485 -273 806
-363 76 -21 72 -41 -8 -38 -65 2 -159 31 -360 111 -186 73 -321 151 -575 331
-90 63 -284 240 -362 330 -73 85 -155 174 -125 135 10 -11 17 -26 17 -32 0 -7
4 -12 9 -12 5 0 19 -19 31 -42 48 -92 57 -107 64 -101 3 3 6 0 6 -8 0 -20 144
-162 153 -152 3 2 8 -5 12 -16 4 -14 15 -21 31 -21 13 0 24 -4 24 -10 0 -5 6
-10 13 -10 7 0 20 -16 27 -36 13 -31 15 -34 20 -15 l5 21 34 -21 c18 -11 35
-29 38 -40 4 -12 14 -19 29 -19 14 0 27 -7 30 -15 3 -8 31 -29 63 -46 31 -18
67 -42 81 -54 41 -37 104 -72 119 -67 9 3 11 0 6 -8 -5 -9 -4 -11 3 -6 7 4 12
2 12 -3 0 -6 10 -11 23 -12 12 0 16 -3 10 -6 -7 -2 -13 -16 -13 -29 0 -29 -16
-30 -50 -4 -14 11 -29 20 -34 20 -4 0 -54 30 -110 67 -55 38 -105 70 -111 73
-31 16 -93 60 -110 80 -11 12 -45 38 -75 58 -69 44 -434 407 -489 487 -151
218 -238 372 -316 558 -15 37 -30 66 -32 64 -2 -2 13 -43 32 -92 43 -105 38
-127 -5 -29 -88 195 -168 497 -191 723 -15 144 -6 533 15 687 30 215 96 459
171 635 55 128 192 376 268 484 116 167 291 378 379 457 339 307 748 535 1158
643 69 19 126 34 128 34 1 1 2 -34 2 -77z m1218 22 c305 -88 616 -253 882
-467 342 -274 575 -563 765 -952 123 -250 184 -438 236 -725 37 -209 42 -604
10 -820 -22 -146 -35 -211 -41 -194 -4 10 -16 -28 -29 -92 -13 -60 -38 -150
-57 -200 -19 -51 -34 -96 -34 -100 0 -5 -23 -57 -52 -116 -52 -107 -57 -113
-106 -111 -10 1 -10 -2 0 -14 9 -11 9 -16 -1 -22 -6 -4 -11 -23 -10 -42 2 -27
-6 -46 -36 -87 -22 -28 -45 -52 -52 -52 -7 0 -10 -6 -7 -13 6 -17 -57 -87 -78
-87 -10 0 -29 -12 -44 -27 -38 -38 -43 -13 -7 35 39 51 65 93 61 98 -4 4 -85
-103 -120 -157 -32 -51 -274 -293 -368 -368 -154 -123 -176 -139 -288 -205
-230 -137 -500 -254 -714 -311 l-68 -18 0 -53 c0 -79 -20 -79 -22 0 -1 36 -2
74 -2 83 -1 13 29 26 139 58 173 50 224 70 398 157 487 242 819 542 1071 968
159 267 253 537 305 865 38 243 36 499 -4 777 -40 271 -165 613 -319 867 -31
52 -48 87 -37 77 11 -10 23 -27 26 -37 4 -11 11 -19 16 -19 25 0 -159 279
-245 370 -154 163 -396 387 -472 437 -45 29 -85 53 -88 53 -4 0 -30 17 -59 38
-79 58 -132 82 -165 76 -20 -4 -32 -1 -43 12 -12 16 -12 17 4 11 48 -19 53
-20 34 -4 -25 21 -296 127 -439 173 l-118 38 0 69 0 69 47 -7 c26 -4 85 -18
131 -31z m-3129 -130 c48 -40 39 -99 -19 -129 -27 -14 -33 -14 -60 0 -61 32
-65 100 -7 135 41 26 49 25 86 -6z m4967 -20 c30 -44 -5 -110 -69 -130 -29 -9
-87 54 -87 94 0 74 114 101 156 36z m-3051 -184 l0 -69 -75 -29 c-41 -17 -86
-33 -100 -37 -81 -22 -380 -169 -410 -202 -8 -9 5 -4 30 11 25 15 70 39 100
52 30 13 62 28 70 33 8 4 24 12 35 18 11 5 30 15 42 21 13 7 31 12 40 12 10 0
-57 -38 -149 -85 -92 -46 -185 -96 -207 -110 -47 -29 -59 -32 -40 -8 13 15 12
15 -6 6 -65 -35 -258 -191 -250 -203 2 -4 -4 -15 -15 -25 -11 -10 -20 -13 -20
-7 0 6 5 13 10 15 6 3 5 4 -2 3 -7 -2 -13 -11 -13 -22 0 -10 -20 -39 -43 -64
-24 -25 -75 -83 -114 -130 -81 -96 -118 -135 -118 -123 0 4 14 24 31 43 47 55
55 80 8 30 -69 -74 -217 -305 -278 -434 -69 -143 -104 -252 -105 -320 0 -29
-3 -41 -7 -30 -4 11 -6 -2 -6 -31 0 -27 -7 -90 -17 -140 -34 -183 -45 -567
-20 -750 34 -259 77 -408 175 -610 60 -125 167 -296 235 -377 21 -25 54 -71
72 -102 22 -36 62 -80 115 -124 103 -86 337 -256 414 -301 232 -136 333 -184
511 -242 109 -35 115 -39 106 -62 -9 -23 -32 -25 -93 -5 -70 23 -88 24 -71 3
7 -9 20 -13 29 -10 8 3 12 2 7 -2 -4 -4 -15 -8 -24 -9 -10 -1 -28 -2 -42 -3
l-25 -2 28 -15 c15 -8 27 -17 27 -20 0 -25 -459 194 -555 266 -224 167 -399
307 -445 357 -174 188 -331 406 -424 588 -42 83 -76 147 -76 142 0 -4 18 -49
40 -101 51 -119 51 -135 0 -31 -49 99 -124 323 -144 430 -57 298 -65 664 -21
960 83 564 393 1086 878 1478 91 74 223 160 347 225 173 92 469 205 550 211
13 1 16 -12 15 -69z m1155 35 c322 -93 697 -322 960 -585 170 -169 339 -399
454 -613 101 -188 198 -481 230 -692 28 -192 42 -435 24 -435 -7 0 -6 -5 2
-15 7 -8 8 -20 4 -27 -5 -7 -7 -21 -6 -30 2 -10 -2 -18 -7 -18 -7 0 -11 -25
-11 -62 0 -172 -77 -505 -163 -704 -44 -103 -149 -296 -191 -351 -77 -102
-139 -173 -151 -173 -29 0 -28 61 2 106 8 13 13 24 9 24 -3 0 -28 -33 -56 -74
-27 -41 -54 -77 -59 -80 -5 -3 -7 -15 -4 -26 3 -11 9 -17 14 -14 5 3 6 -3 2
-12 -5 -14 -2 -16 16 -11 18 4 15 -2 -18 -41 -98 -117 -327 -306 -486 -402
-71 -44 -79 -48 -195 -115 -100 -57 -222 -111 -318 -141 -159 -49 -142 -49
-142 -1 l0 42 88 23 c48 13 100 25 116 27 16 3 32 9 35 14 3 5 24 13 46 17 22
4 51 14 64 23 13 8 29 16 35 17 6 1 38 18 71 37 33 19 92 52 130 73 39 20 95
56 125 78 30 23 62 46 71 51 10 6 32 24 51 40 18 17 68 57 110 89 69 52 128
113 128 132 0 4 -28 -19 -63 -52 -272 -253 -559 -424 -866 -515 l-151 -44 -1
-50 c-1 -42 -2 -46 -9 -23 -4 15 -10 49 -12 74 -3 45 -2 48 27 56 374 112 531
195 915 486 178 135 199 157 194 196 -4 26 4 42 50 99 84 104 146 207 229 377
83 172 94 200 136 363 52 200 66 333 65 607 -2 275 -15 376 -79 603 -55 196
-217 508 -348 669 -23 29 -54 69 -67 88 -45 64 -204 226 -303 309 -53 45 -95
86 -92 90 17 29 -328 233 -400 237 -22 2 -56 10 -75 18 -45 20 -25 20 30 1 24
-8 45 -14 47 -12 7 7 -133 66 -197 83 -138 37 -147 47 -134 148 8 55 9 55 124
21z m2262 -129 c16 -12 38 -56 38 -76 0 -18 -52 -70 -70 -70 -10 0 -32 12 -49
26 -40 33 -42 75 -5 109 30 27 60 31 86 11z m-3427 -178 c7 -23 11 -667 4
-662 -11 7 -85 -87 -97 -125 -7 -19 -12 -50 -12 -70 -1 -33 -2 -34 -13 -16
-17 28 -23 820 -6 841 6 8 32 21 58 28 58 18 61 19 66 4z m1155 -27 l25 -18
-3 -414 c-2 -228 -7 -418 -12 -422 -9 -10 -40 19 -40 39 0 8 -4 14 -9 14 -5 0
-27 27 -49 59 l-39 59 11 344 c6 188 15 349 19 356 11 17 62 7 97 -17z m-1471
-115 c17 -20 11 -1101 -6 -1101 -28 0 -92 -124 -108 -210 -18 -99 -24 35 -24
632 l-1 633 53 30 c59 34 70 36 86 16z m1766 -29 l40 -23 3 -604 c1 -333 0
-620 -3 -638 l-6 -34 -57 92 c-31 50 -58 86 -60 80 -2 -5 -8 -10 -13 -10 -10
0 -13 926 -3 1068 7 91 7 92 33 92 14 0 44 -11 66 -23z m-827 -154 c10 -16 61
-109 112 -208 51 -99 128 -243 170 -320 43 -77 135 -250 205 -385 70 -135 136
-259 146 -276 24 -40 323 -639 444 -889 50 -104 132 -264 182 -355 177 -323
274 -513 271 -533 -3 -19 -5 -19 -35 7 -20 17 -63 86 -113 182 -93 178 -160
294 -160 279 0 -5 11 -30 25 -53 14 -24 22 -48 19 -53 -3 -5 0 -8 8 -7 7 2 12
-3 10 -11 -4 -20 7 -61 16 -58 8 2 12 -7 12 -25 0 -9 -2 -10 -8 -2 -10 16 -52
-1 -52 -21 0 -8 -4 -15 -10 -15 -5 0 -10 3 -10 8 0 4 -52 6 -116 4 -80 -2
-114 0 -109 7 3 6 2 11 -3 11 -5 0 -37 55 -72 123 -35 67 -87 163 -115 212
-29 50 -153 288 -275 530 -271 536 -474 913 -548 1020 -57 82 -81 113 -68 85
4 -8 0 -6 -8 4 -9 11 -16 23 -16 28 0 19 -17 5 -40 -32 -33 -54 -36 -44 -4 13
14 26 24 52 22 58 -3 10 -109 -158 -149 -235 -41 -82 -143 -272 -149 -281 -9
-11 -181 -337 -276 -524 -35 -67 -77 -148 -93 -180 -16 -31 -84 -166 -151
-301 -67 -135 -157 -312 -200 -395 -43 -82 -97 -194 -120 -248 -24 -53 -45
-95 -47 -93 -3 2 3 18 12 36 10 19 13 39 9 53 -7 21 -8 20 -15 -8 l-7 -30 -1
28 c-1 20 -6 27 -21 27 -13 0 -20 7 -20 20 0 13 -7 20 -20 20 -17 0 -20 7 -20
40 l0 40 -40 0 c-29 0 -40 4 -40 15 0 8 -9 15 -19 15 -25 0 -37 36 -19 58 7 9
23 37 35 62 12 25 36 74 53 110 18 36 28 61 22 55 -5 -5 -66 -119 -136 -253
-146 -283 -173 -326 -205 -330 -20 -3 -23 -1 -18 20 7 28 342 685 424 832 31
54 149 288 263 520 114 231 237 477 275 546 37 69 112 208 165 310 53 102 122
230 152 285 31 55 87 161 125 235 39 74 83 158 99 187 l29 52 65 4 c36 2 82 4
102 5 30 2 40 -3 56 -25z m-1266 -40 c17 -15 18 -46 18 -577 0 -309 -3 -591
-6 -627 l-7 -66 -48 5 c-47 4 -49 4 -49 -22 0 -38 -28 -33 -35 7 -4 24 -1
1233 4 1244 4 9 79 53 90 53 8 0 23 -7 33 -17z m2403 -11 c52 -44 50 -15 47
-661 l-2 -601 -55 0 c-48 0 -55 -2 -55 -20 0 -11 -7 -20 -15 -20 -13 0 -15 79
-15 648 0 491 3 651 12 660 17 17 60 14 83 -6z m-2713 -289 c17 -15 18 -43 18
-462 0 -245 -3 -462 -6 -482 l-6 -35 -48 6 c-45 6 -49 5 -55 -18 -3 -13 -11
-22 -18 -19 -9 3 -13 117 -15 479 l-2 476 42 36 c46 40 63 44 90 19z m3038
-29 l41 -37 -3 -451 -3 -451 -57 -3 c-50 -3 -58 -6 -58 -22 0 -11 -4 -20 -9
-20 -20 0 -26 978 -6 1010 13 21 56 9 95 -26z m-3330 -384 c11 -21 14 -299 3
-463 l-6 -107 -48 0 c-35 0 -51 -5 -58 -17 -5 -10 -13 -14 -18 -10 -4 5 -8
113 -8 240 0 250 1 256 58 349 25 41 31 46 48 38 10 -6 23 -19 29 -30z m3578
-7 c74 -106 93 -194 85 -404 -5 -139 -8 -159 -22 -155 -9 3 -32 6 -51 8 -30 3
-35 0 -38 -19 -2 -13 -10 -23 -19 -23 -14 0 -15 30 -10 293 6 340 10 363 55
300z m-1771 -357 c30 -44 33 -55 33 -121 0 -40 -3 -80 -6 -89 -7 -18 -40 -21
-78 -6 -23 8 -26 7 -32 -15 -3 -14 -10 -25 -14 -25 -11 0 -24 141 -17 196 5
46 50 118 70 111 6 -2 26 -25 44 -51z m1766 -436 c2 -3 7 -50 10 -104 3 -56 2
-94 -3 -86 -5 8 -10 -12 -14 -56 -3 -38 -9 -96 -13 -129 l-8 -60 -207 -3 -206
-2 -92 162 c-51 90 -98 168 -104 173 -7 6 -27 31 -44 57 l-32 47 57 4 c84 5
651 3 656 -3z m-2933 -10 c0 -5 -15 -27 -33 -47 -34 -38 -65 -90 -167 -277
-66 -120 -52 -115 -297 -115 -153 -1 -163 -2 -163 -20 0 -19 -27 -37 -39 -25
-3 3 -8 116 -9 250 l-4 244 356 0 c230 0 356 -4 356 -10z m1455 -67 c16 -38
63 -137 107 -220 43 -84 78 -159 78 -167 0 -8 -7 -16 -15 -20 -8 -3 -242 -6
-520 -6 l-505 -2 -15 -26 c-12 -23 -14 -24 -15 -7 0 25 82 214 137 315 22 41
56 103 74 137 l34 63 306 0 306 0 28 -67z m-2108 -611 c8 -5 14 -50 17 -127 3
-73 2 -106 -3 -85 -5 19 -9 28 -10 19 -2 -24 -24 -30 -52 -13 -13 7 -32 17
-42 20 -26 9 -37 45 -37 114 0 46 4 61 18 69 20 12 92 14 109 3z m1530 -56
l28 -24 2 -609 c2 -334 -1 -729 -6 -878 l-8 -270 -3 270 c-1 149 -4 261 -6
250 -1 -11 -8 -155 -15 -320 -8 -203 -16 -304 -24 -312 -7 -6 -16 -40 -21 -75
-7 -48 -10 11 -14 252 -5 276 -6 295 -10 150 -3 -91 -5 -289 -5 -440 0 -258
-7 -333 -26 -284 -10 26 -10 2186 0 2248 12 71 55 88 108 42z m310 10 c4 -4 7
-354 7 -779 0 -667 -3 -782 -16 -847 -9 -41 -17 -68 -17 -60 -2 25 -21 -10
-21 -38 0 -13 -4 -20 -10 -17 -6 4 -11 -8 -11 -27 l-2 -33 -6 35 c-10 53 -24
-181 -17 -282 8 -108 -5 -270 -21 -276 -19 -6 -19 2324 0 2332 16 7 105 1 114
-8z m279 0 c18 -14 19 -33 22 -533 4 -701 -13 -1484 -35 -1576 -9 -37 -20 -67
-24 -67 -9 0 -5 -62 5 -79 4 -6 1 -11 -8 -11 -14 0 -16 33 -18 268 l-2 267 -6
-275 c-3 -172 -10 -284 -17 -300 -8 -19 -12 -21 -16 -10 -10 26 -14 2298 -5
2314 11 20 77 21 104 2z m269 8 c40 -16 46 -53 47 -322 2 -488 -2 -763 -11
-758 -14 9 -19 -28 -14 -97 5 -64 5 -64 -26 -80 l-31 -15 -1 81 -2 82 -10
-105 c-5 -58 -11 -107 -14 -110 -19 -20 -23 92 -23 667 0 601 1 643 18 652 20
12 44 14 67 5z m-1145 -14 c12 -7 15 -59 17 -317 4 -386 -7 -854 -18 -847 -5
3 -9 -6 -9 -20 0 -33 -36 -69 -61 -63 -16 4 -21 -1 -26 -24 -18 -91 -23 43
-23 602 0 699 -2 679 68 679 20 0 44 -4 52 -10z m-292 -441 c1 -30 -1 -179 -6
-331 -8 -266 -9 -279 -30 -301 -12 -13 -22 -29 -22 -37 0 -9 -5 -8 -20 5 -17
16 -20 33 -23 154 l-3 136 -2 -168 c-1 -130 -5 -168 -14 -165 -14 5 -25 173
-27 413 l-1 130 44 80 c68 126 80 145 91 142 6 -2 11 -28 13 -58z m1732 -61
c18 -32 27 -58 21 -58 -8 0 -9 -6 -3 -17 12 -23 9 -212 -4 -238 -11 -24 -12
-231 0 -261 6 -16 3 -23 -10 -28 -9 -3 -18 -5 -20 -4 -3 4 -12 247 -16 423 -1
77 -5 -3 -8 -177 -3 -174 -8 -320 -12 -324 -5 -4 -11 -4 -15 0 -10 9 -16 697
-8 745 6 33 7 34 25 15 10 -10 32 -45 50 -76z m1103 -448 c-3 -12 -10 -17 -17
-13 -6 4 -3 -5 6 -19 l17 -26 -54 -50 c-40 -36 -60 -49 -75 -45 -16 4 -19 2
-14 -11 5 -12 -10 -33 -53 -74 -32 -31 -69 -64 -81 -72 -12 -8 -24 -22 -27
-30 -14 -44 -196 -180 -241 -180 -12 0 -25 -6 -27 -12 -4 -9 -6 -10 -6 -1 -1
6 6 19 15 27 8 9 13 16 9 16 -10 0 16 22 85 72 36 26 83 62 104 80 25 21 38
27 34 16 -5 -12 -3 -15 8 -11 9 3 12 12 9 24 -4 11 -2 19 5 19 6 0 8 -5 4 -12
-4 -7 -3 -8 4 -4 7 4 12 12 12 18 0 6 37 52 83 102 45 50 106 119 136 153 52
62 74 73 64 33z m899 -484 c24 -29 22 -65 -4 -93 -27 -29 -57 -29 -92 -2 -41
32 -33 106 14 122 25 8 64 -4 82 -27z m-3887 -286 c-3 -5 1 -10 10 -10 9 0 13
4 10 10 -10 15 28 -1 47 -21 10 -10 28 -16 43 -15 14 2 25 0 25 -5 0 -5 7 -5
17 -2 10 4 14 2 10 -4 -4 -6 3 -10 16 -10 13 0 56 -12 97 -25 41 -14 90 -29
108 -33 23 -5 32 -12 32 -27 0 -20 -4 -21 -78 -15 -45 4 -99 15 -128 27 -80
35 -231 90 -245 90 -8 0 -5 6 7 15 15 11 16 15 4 15 -10 1 -9 4 5 10 27 11 27
11 20 0z m-1398 -117 c44 -21 93 -94 93 -140 0 -66 -56 -133 -127 -152 -140
-39 -243 148 -139 252 53 53 116 68 173 40z m4866 -7 c109 -46 131 -176 44
-251 -48 -41 -91 -52 -144 -35 -134 43 -152 219 -29 280 48 23 84 25 129 6z"/>
<path d="M2680 8142 c-38 -38 -38 -54 1 -86 38 -32 69 -33 97 -3 41 44 23 102
-35 113 -27 5 -37 1 -63 -24z"/>
<path d="M7542 8137 c-28 -30 -28 -52 3 -82 31 -32 74 -33 103 -2 28 30 28 58
-1 85 -31 29 -77 29 -105 -1z"/>
<path d="M2677 2712 c-34 -35 -34 -66 -2 -97 31 -32 74 -33 103 -2 28 29 28
67 1 101 -28 35 -67 34 -102 -2z"/>
<path d="M7558 2724 c-53 -28 -45 -100 14 -130 33 -17 70 -6 93 30 20 30 14
55 -22 90 -29 29 -46 32 -85 10z"/>
</g>
</svg>
